<?xml version="1.0" encoding="utf-8"?>
<!-- Generator: Adobe Illustrator 24.1.1, SVG Export Plug-In . SVG Version: 6.00 Build 0)  -->
<svg version="1.1" id="Layer_1" xmlns="http://www.w3.org/2000/svg" xmlns:xlink="http://www.w3.org/1999/xlink" x="0px" y="0px"
	 viewBox="0 0 512 512" style="enable-background:new 0 0 512 512;" xml:space="preserve">
<g>
	<path d="M243,12.9c-21.7,53-34.7,87.7-58.7,139.2c14.7,15.7,32.9,33.9,62.3,54.5c-31.7-13.1-53.2-26.2-69.4-39.7
		C146.3,231.3,98,322.9,0,499.1c77.1-44.5,136.7-71.9,192.4-82.4c-2.3-10.3-3.7-21.3-3.7-33l0.1-2.4c1.2-49.4,26.9-87.3,57.3-84.8
		c30.4,2.6,54.1,44.7,52.9,94.1c-0.3,9.2-1.3,18.2-3.2,26.5c55.1,10.7,114.2,38.1,190.2,82c-15-27.6-28.3-52.5-41.2-76.2
		C424.8,407.3,403.8,387,361,365c29.4,7.7,50.4,16.5,66.8,26.3C298,149.6,287.5,117.4,243,12.9L243,12.9z M488.5,455.7v-13.2h-5
		v-1.8h12v1.8h-5v13.2H488.5L488.5,455.7z M497.6,455.7v-15.1h3l3.6,10.7l0.7,2.3l0.8-2.4l3.6-10.5h2.7v15.1h-1.9V443l-4.4,12.7
		h-1.8l-4.3-12.8v12.8L497.6,455.7L497.6,455.7z"/>
</g>
</svg>
